<svg xmlns="http://www.w3.org/2000/svg" viewBox="0 0 60.7 68.9"><title>Castle</title><path class="logo-style" d="M32.1,2.4l-1-.8H31l-1.1.9c-.5.4-9.4,8.2-28.6,9V13c0,.6.1,12.5,1.6,19.6C5.5,45.2,16.6,63.7,31,68.8h.1c14.4-5.1,25.5-23.6,28-36.1,1.5-7.1,1.6-19.1,1.6-19.6V11.4C41.4,10.6,32.5,2.7,32.1,2.4Z" transform="translate(-0.6 -0.6)" style="fill:#fff"/><path class="logo-style" d="M31.2,69.4h-.4C26.1,67.8,19,63.7,12,53.9,7.3,47.3,3.6,39.4,2.3,32.8S.6,13.1.6,13V10.8h.6c3.1-.1,18.9-1.2,28.2-8.8h.1l1-.9L31,.6l.5.5.9.8h.1c9.3,7.7,25.1,8.7,28.2,8.8h.6v2.3c0,.1-.1,12.4-1.7,19.8S54.7,47.3,50,53.9C43,63.7,36,67.8,31.3,69.4ZM1.9,12v1c0,.1.1,12.3,1.6,19.5S8.4,46.7,13,53.1c6.7,9.4,13.5,13.3,18,15,4.5-1.6,11.2-5.5,18-15,4.6-6.4,8.1-14.1,9.4-20.6S60,13.2,60,13.1V12c-17.1-.9-26-7.2-28.3-9.1h-.1L31,2.3l-.6.5h-.1C27.9,4.8,19.1,11.1,1.9,12Z" transform="translate(-0.6 -0.6)" style="fill:#1d4e82"/><path class="logo-style" d="M56.2,15c-.2,0-15.6-.5-24.6-8.1L31,6.3l-.7.6C21.3,14.5,5.9,15,5.8,15H4.8v1A90.9,90.9,0,0,0,7.6,39.3v-.8c0-.9,0-.9.9-.9H10c.9,0,.9,0,.9.9v.9h1.8v-.9c0-.9,0-.9.9-.9h2c.9,0,.9,0,.9.9v.9h1.8v-.9c0-.9,0-.9.9-.9h1.4c.9,0,.9,0,.9.9v4.9h2.8v-16c0-.9,0-.9.9-.9h1.3c.9,0,.9,0,.9.9v.9h1.7v-.9c0-.9,0-.9.9-.9h1.8c.9,0,.9,0,.9.9v.9h1.7v-.9c0-.9,0-.9.9-.9h1.3c.9,0,.9,0,.9.9v11s0,2.8,0,4.9h3.1V38.5c0-.9,0-.9.9-.9h1.4c.9,0,.9,0,.9.9v.9h1.8v-.9c0-.9,0-.9.9-.9h2c.9,0,.9,0,.9.9v.9h1.8v-.9c0-.9,0-.9.9-.9h1.4c.9,0,.9,0,.9.9v.8A90.9,90.9,0,0,0,57.1,16V15ZM25.3,24.9l1.8-8.1h1.6v1.8h1.6V16.8h.5V12.3h4.4V15H31.5v1.8H32v1.8h1.6V16.8h1.6L37,24.9Z" transform="translate(-0.6 -0.6)" style="fill:#2392d0"/><path class="logo-style" d="M40.8,52.5H34.3V42.1a3.5,3.5,0,1,0-7,0V52.5H16.3l.7.9c6.8,8.2,13.5,10.4,13.8,10.5h.6c.3-.1,7-2.3,13.7-10.5l.7-.9H40.8Z" transform="translate(-0.6 -0.6)" style="fill:#2392d0"/></svg>