<?xml version="1.0" encoding="utf-8"?>
<svg xmlns="http://www.w3.org/2000/svg" viewBox="0 0 24 24">
	<style type="text/css">.st0{fill:#ffffff;}</style>
	<path class="st0" d="M21.15,4.3H2.85A2.41,2.41,0,0,0,.45,6.71V17.29A2.41,2.41,0,0,0,2.85,19.7H21.15a2.41,2.41,0,0,0,2.41-2.41V6.71A2.41,2.41,0,0,0,21.15,4.3ZM8.94,12.85L3.16,17.66a0.48,0.48,0,1,1-.62-0.74l5.78-4.81A0.48,0.48,0,1,1,8.94,12.85ZM12,13a2.69,2.69,0,0,1-1.52-.47L2.58,7.1a0.48,0.48,0,1,1,.54-0.79L11,11.71a1.72,1.72,0,0,0,2,0l7.89-5.4a0.48,0.48,0,0,1,.54.79l-7.89,5.4A2.69,2.69,0,0,1,12,13Zm9.51,4.62a0.48,0.48,0,0,1-.68.06l-5.78-4.81a0.48,0.48,0,1,1,.62-0.74l5.78,4.81A0.48,0.48,0,0,1,21.51,17.6Z" /></svg>