<svg id="b65b0239-baa1-49d0-81e2-4e1e87c40bbf" data-name="svg2" xmlns="http://www.w3.org/2000/svg" viewBox="0 0 180 180"><defs><style>.\37 f723e7c-56d9-4e2a-bb95-e595863ea1d5{fill:#333;}.f22a0a32-3586-48d9-a6db-4212581091a0{fill:#fff;}.c1cc956e-896b-43b6-9fc8-c755c5cd82d1,.f22a0a32-3586-48d9-a6db-4212581091a0{stroke:#fff;stroke-linecap:round;stroke-miterlimit:10;stroke-width:3.6px;}.c1cc956e-896b-43b6-9fc8-c755c5cd82d1,.cac28385-2ae9-490a-b7f7-afed5ecef24b{fill:none;}</style></defs><title>icon-print</title><g id="9c6e9db2-8fae-4533-9c51-adb853ad0793" data-name="layer1"><path id="48682310-6474-4d6f-8d39-bbadec2e7077" data-name="path5742" class="7f723e7c-56d9-4e2a-bb95-e595863ea1d5" d="M100,10a90,90,0,0,0,0,180c2,0,3.88-.19,5.81-0.31a88.8,88.8,0,0,0,19-3.37A90.59,90.59,0,0,0,190,100a90.27,90.27,0,0,0-.72-10.75c-0.09-.72-0.24-1.41-0.34-2.12A89.92,89.92,0,0,0,100,10Z" transform="translate(-10 -10)"/></g><path class="f22a0a32-3586-48d9-a6db-4212581091a0" d="M73,128H60.4a3.6,3.6,0,0,1-3.6-3.6V86.6A3.6,3.6,0,0,1,60.4,83h79.2a3.6,3.6,0,0,1,3.6,3.6v37.8a3.6,3.6,0,0,1-3.6,3.6H127" transform="translate(-10 -10)"/><rect class="cac28385-2ae9-490a-b7f7-afed5ecef24b" x="45" y="46" width="90" height="90"/><circle cx="122.4" cy="83.8" r="3.6"/><path class="c1cc956e-896b-43b6-9fc8-c755c5cd82d1" d="M127,83V57.8H73V83" transform="translate(-10 -10)"/><path class="c1cc956e-896b-43b6-9fc8-c755c5cd82d1" d="M127,108.2v36H73v-36h54Z" transform="translate(-10 -10)"/><line class="c1cc956e-896b-43b6-9fc8-c755c5cd82d1" x1="108" y1="109" x2="72" y2="109"/><line class="c1cc956e-896b-43b6-9fc8-c755c5cd82d1" x1="100.8" y1="116.2" x2="72" y2="116.2"/><line class="c1cc956e-896b-43b6-9fc8-c755c5cd82d1" x1="108" y1="123.4" x2="72" y2="123.4"/></svg>