<?xml version="1.0" encoding="utf-8"?>
<svg xmlns="http://www.w3.org/2000/svg" viewBox="0 0 24 24">
	<style type="text/css">.st0{fill:#ffffff;}</style>
<path class="st0" d="M19.72,2.24H4.28a2,2,0,0,0-2,2V19.72a2,2,0,0,0,2,2h8.94a0.41,0.41,0,0,0,.41-0.41V14a0.41,0.41,0,0,0-.41-0.41h-2V12h2a0.41,0.41,0,0,0,.41-0.41V9.15A3.66,3.66,0,0,1,17.28,5.5H18.5V7.12H17.28a2,2,0,0,0-2,2v2.44a0.41,0.41,0,0,0,.41.41h2.69L17.8,13.63H15.66a0.41,0.41,0,0,0-.41.41v7.32a0.41,0.41,0,0,0,.41.41h4.06a2,2,0,0,0,2-2V4.28A2,2,0,0,0,19.72,2.24Z"/>
</svg>