<?xml version="1.0" encoding="utf-8"?>
<svg xmlns="http://www.w3.org/2000/svg" viewBox="0 0 24 24">
	<style type="text/css">.st0{fill:#ffffff;}</style>
<circle class="st0" cx="4.38" cy="4.38" r="2.54"/><path class="st0" d="M6.49,8.61H2.26A0.42,0.42,0,0,0,1.84,9v12.7a0.42,0.42,0,0,0,.42.42H6.49a0.42,0.42,0,0,0,.42-0.42V9A0.42,0.42,0,0,0,6.49,8.61Z"/>
<path class="st0" d="M19.11,8a6.43,6.43,0,0,0-5.43.9,0.42,0.42,0,0,0-.41-0.32H9A0.42,0.42,0,0,0,8.61,9v12.7a0.42,0.42,0,0,0,.42.42h4.23a0.42,0.42,0,0,0,.42-0.42V12.61A2.22,2.22,0,0,1,16,12.14a2,2,0,0,1,1.1,2v7.62a0.42,0.42,0,0,0,.42.42h4.23a0.42,0.42,0,0,0,.42-0.42V13.26C22.12,9.78,20.48,8.5,19.11,8Z"/>
</svg>