<?xml version="1.0" encoding="utf-8"?>
<svg xmlns="http://www.w3.org/2000/svg" viewBox="0 0 24 24">
	<style type="text/css">.st0{fill:#ffffff;}</style>
	<path class="st0" d="M20.38,15.23L15.47,9.9a0.45,0.45,0,0,0-.33-0.15H14.69V8.4a0.45,0.45,0,0,0-.9,0V9.75H10.2V8.4a0.45,0.45,0,1,0-.9,0V9.75H8.86a0.45,0.45,0,0,0-.33.14L3.61,15.23a0.45,0.45,0,0,0-.07.1A5,5,0,0,0,3,17.54V21a0.45,0.45,0,0,0,.45.45H20.53A0.45,0.45,0,0,0,21,21V17.54a5,5,0,0,0-.52-2.21A0.45,0.45,0,0,0,20.38,15.23ZM13.8,11.55h0.45a0.45,0.45,0,1,1,0,.9H13.8A0.45,0.45,0,1,1,13.8,11.55Zm-2,0h0.45a0.45,0.45,0,1,1,0,.9H11.78A0.45,0.45,0,1,1,11.78,11.55Zm-0.22,1.8h0.9a0.45,0.45,0,1,1,0,.9h-0.9A0.45,0.45,0,1,1,11.55,13.34ZM9.9,16h-1a0.45,0.45,0,0,1,0-.9h1A0.45,0.45,0,0,1,9.9,16Zm0.3-1.8H9.31a0.45,0.45,0,0,1,0-.9h0.9A0.45,0.45,0,1,1,10.2,14.24Zm0-1.8H9.76a0.45,0.45,0,0,1,0-.9H10.2A0.45,0.45,0,1,1,10.2,12.44ZM12.55,16H11.43a0.45,0.45,0,1,1,0-.9h1.12A0.45,0.45,0,1,1,12.55,16Zm0.8-2.24a0.45,0.45,0,0,1,.45-0.45h0.9a0.45,0.45,0,0,1,0,.9H13.8A0.45,0.45,0,0,1,13.35,13.79ZM15.14,16h-1a0.45,0.45,0,1,1,0-.9h1A0.45,0.45,0,0,1,15.14,16Zm7.24-9.32a15.09,15.09,0,0,0-20.78,0,1.3,1.3,0,0,0-.38.93,1.27,1.27,0,0,0,.38.92l2.13,2.13a1.36,1.36,0,0,0,1.84,0A9.42,9.42,0,0,1,7.76,9.21,1.36,1.36,0,0,0,8.41,8V5.6A14.2,14.2,0,0,1,12,5.26a13.89,13.89,0,0,1,3.59.33V8a1.33,1.33,0,0,0,.64,1.26,9.23,9.23,0,0,1,2.19,1.52,1.34,1.34,0,0,0,.91.36,1.31,1.31,0,0,0,.93-0.38l2.13-2.13A1.32,1.32,0,0,0,22.38,6.72Z"/>
</svg>