<?xml version="1.0" encoding="utf-8"?>
<svg xmlns="http://www.w3.org/2000/svg" viewBox="0 0 24 24">
	<style type="text/css">.st0{fill:#ffffff;}</style>
<path class="st0" d="M23.37,5.82a0.5,0.5,0,0,0-.6-0.11,4.34,4.34,0,0,1-.64.23,4.5,4.5,0,0,0,.76-1.46,0.5,0.5,0,0,0-.77-0.54,10.54,10.54,0,0,1-2.41.94,5,5,0,0,0-6.31-.49A5,5,0,0,0,11.25,9,11.84,11.84,0,0,1,3,4.52a0.51,0.51,0,0,0-.42-0.19,0.5,0.5,0,0,0-.4.24,4.84,4.84,0,0,0-.56,3.76,5.34,5.34,0,0,0,.87,1.82,2.72,2.72,0,0,1-.51-0.33,0.5,0.5,0,0,0-.82.39,5.17,5.17,0,0,0,2.66,4.44,3.74,3.74,0,0,1-.64-0.14,0.5,0.5,0,0,0-.6.68,5.46,5.46,0,0,0,3.79,3.1,8.82,8.82,0,0,1-5.28,1.09,0.5,0.5,0,0,0-.3.93,15,15,0,0,0,7.39,2.1,12.69,12.69,0,0,0,7-2.15c4-2.63,6.43-7.35,6.09-11.58a9.33,9.33,0,0,0,2.17-2.27A0.49,0.49,0,0,0,23.37,5.82Z"/>
</svg>