<?xml version="1.0" encoding="utf-8"?>
<!-- Generator: Adobe Illustrator 19.2.1, SVG Export Plug-In . SVG Version: 6.00 Build 0)  -->
<svg version="1.1"
	 id="svg2" xmlns:cc="http://creativecommons.org/ns#" xmlns:dc="http://purl.org/dc/elements/1.1/" xmlns:inkscape="http://www.inkscape.org/namespaces/inkscape" xmlns:rdf="http://www.w3.org/1999/02/22-rdf-syntax-ns#" xmlns:sodipodi="http://sodipodi.sourceforge.net/DTD/sodipodi-0.dtd" xmlns:svg="http://www.w3.org/2000/svg"
	 xmlns="http://www.w3.org/2000/svg" xmlns:xlink="http://www.w3.org/1999/xlink" x="0px" y="0px" viewBox="0 0 200 200"
	 style="enable-background:new 0 0 200 200;" xml:space="preserve">
<style type="text/css">
	.st0{fill:#333333;}
	.st1{opacity:0.1;fill:#FFFFFF;enable-background:new    ;}
	.st2{fill:#ECECEC;}
</style>
<g id="layer1" transform="translate(0,-852.36218)">
	<path id="path5742" class="st0" d="M100,862.4c-49.7,0-90,40.3-90,90s40.3,90,90,90c2,0,3.9-0.2,5.8-0.3c6.6-0.4,12.9-1.6,19-3.4
		c5.7-1.6,11.1-3.8,16.3-6.4c24.9-12.8,42.9-36.8,47.6-65.3c0.8-4.7,1.3-9.6,1.3-14.6c0-3.7-0.3-7.2-0.7-10.8
		c-0.1-0.7-0.2-1.4-0.3-2.1C182.7,895.9,145.3,862.4,100,862.4z"/>
</g>
<g id="layer3">
</g>
<g id="layer4">
	<rect id="rect3759" x="-113.4" y="68.8" class="st1" width="1.9" height="1.3"/>
	<path id="path3" class="st2" d="M132.9,114.9c-4.9,0-9.3,2.1-12.4,5.3L84,102.4c0.1-0.8,0.2-1.7,0.2-2.6c0-0.9-0.1-1.7-0.2-2.5
		l36.4-17.6c3.1,3.3,7.5,5.4,12.4,5.4c9.5,0,17.1-7.7,17.1-17.1c0-9.5-7.7-17.1-17.1-17.1s-17.1,7.7-17.1,17.1
		c0,0.9,0.1,1.7,0.2,2.5L79.6,88.1c-3.1-3.3-7.5-5.4-12.4-5.4c-9.5,0-17.1,7.7-17.1,17.1c0,9.5,7.7,17.1,17.1,17.1
		c4.9,0,9.3-2.1,12.4-5.3l36.4,17.8c-0.1,0.8-0.2,1.7-0.2,2.6c0,9.5,7.7,17.1,17.1,17.1c9.5,0,17.1-7.7,17.1-17.1
		S142.3,114.9,132.9,114.9z"/>
</g>
</svg>
